# xmcd CD database file
#
# Track frame offsets:
#	150
#	22039
#	36161
#	56872
#	80395
#	95307
#	105866
#	139002
#	162092
#	178011
#	200252
#	212341
#	234657
#
# Disc length: 3292 seconds
#
# Revision: 0
# Processed by: cddbd v1.5.2PL0 Copyright (c) Steve Scherf et al.
# Submitted via: CDex 1.51
#
DISCID=a10cda0d
DTITLE=Loreena McKennitt - A Midwinter Night's Dream
DYEAR=2008
DGENRE=New Age
TTITLE0=The Holly and The Ivy
TTITLE1=Un Flambeau, Jeannette, Isabelle
TTITLE2=The Seven Rejoices of Mary
TTITLE3=Noel Nouvelet
TTITLE4=Good King Wenceslas
TTITLE5=Coventry Carol
TTITLE6=God Rest Ye Merry Gentlemen
TTITLE7=Snow
TTITLE8=Breton Carol
TTITLE9=Seeds Of Love
TTITLE10=Gloucestershire Wassail
TTITLE11=Emmanuel
TTITLE12=In The Bleak Midwinter
EXTD=YEAR: 2008
EXTT0=
EXTT1=
EXTT2=
EXTT3=
EXTT4=
EXTT5=
EXTT6=
EXTT7=
EXTT8=
EXTT9=
EXTT10=
EXTT11=
EXTT12=
PLAYORDER=
